<svg viewBox="0 0 794.5 400" xmlns="http://www.w3.org/2000/svg"><g><g><g><g><g><line x1="40" y1="370.7752293577982" x2="35" y2="370.7752293577982" style="visibility: inherit;" fill="rgb(0, 0, 0)" stroke="rgb(204, 204, 204)" stroke-width="1px"></line><line x1="40" y1="343.4655963302752" x2="35" y2="343.4655963302752" style="visibility: inherit;" fill="rgb(0, 0, 0)" stroke="rgb(204, 204, 204)" stroke-width="1px"></line><line x1="40" y1="316.1559633027523" x2="35" y2="316.1559633027523" style="visibility: inherit;" fill="rgb(0, 0, 0)" stroke="rgb(204, 204, 204)" stroke-width="1px"></line><line x1="40" y1="288.8463302752294" x2="35" y2="288.8463302752294" style="visibility: inherit;" fill="rgb(0, 0, 0)" stroke="rgb(204, 204, 204)" stroke-width="1px"></line><line x1="40" y1="261.5366972477064" x2="35" y2="261.5366972477064" style="visibility: inherit;" fill="rgb(0, 0, 0)" stroke="rgb(204, 204, 204)" stroke-width="1px"></line><line x1="40" y1="234.22706422018348" x2="35" y2="234.22706422018348" style="visibility: inherit;" fill="rgb(0, 0, 0)" stroke="rgb(204, 204, 204)" stroke-width="1px"></line><line x1="40" y1="206.91743119266056" x2="35" y2="206.91743119266056" style="visibility: inherit;" fill="rgb(0, 0, 0)" stroke="rgb(204, 204, 204)" stroke-width="1px"></line><line x1="40" y1="179.6077981651376" x2="35" y2="179.6077981651376" style="visibility: inherit;" fill="rgb(0, 0, 0)" stroke="rgb(204, 204, 204)" stroke-width="1px"></line><line x1="40" y1="152.29816513761466" x2="35" y2="152.29816513761466" style="visibility: inherit;" fill="rgb(0, 0, 0)" stroke="rgb(204, 204, 204)" stroke-width="1px"></line><line x1="40" y1="124.98853211009174" x2="35" y2="124.98853211009174" style="visibility: inherit;" fill="rgb(0, 0, 0)" stroke="rgb(204, 204, 204)" stroke-width="1px"></line><line x1="40" y1="97.67889908256882" x2="35" y2="97.67889908256882" style="visibility: inherit;" fill="rgb(0, 0, 0)" stroke="rgb(204, 204, 204)" stroke-width="1px"></line><line x1="40" y1="70.36926605504584" x2="35" y2="70.36926605504584" style="visibility: inherit;" fill="rgb(0, 0, 0)" stroke="rgb(204, 204, 204)" stroke-width="1px"></line><line x1="40" y1="43.05963302752292" x2="35" y2="43.05963302752292" style="visibility: inherit;" fill="rgb(0, 0, 0)" stroke="rgb(204, 204, 204)" stroke-width="1px"></line><line x1="40" y1="15.75" x2="35" y2="15.75" style="visibility: inherit;" fill="rgb(0, 0, 0)" stroke="rgb(204, 204, 204)" stroke-width="1px"></line></g><g transform="translate(30, 0)"><text x="0" y="370.7752293577982" dx="0em" dy="0.3em" style="text-anchor: end; visibility: inherit; font-family: &quot;Helvetica Neue&quot;, sans-serif; font-size: 12px; font-weight: 200;" fill="rgb(50, 49, 63)" stroke="none" stroke-width="1px">0</text><text x="0" y="343.4655963302752" dx="0em" dy="0.3em" style="text-anchor: end; visibility: inherit; font-family: &quot;Helvetica Neue&quot;, sans-serif; font-size: 12px; font-weight: 200;" fill="rgb(50, 49, 63)" stroke="none" stroke-width="1px">0.5</text><text x="0" y="316.1559633027523" dx="0em" dy="0.3em" style="text-anchor: end; visibility: inherit; font-family: &quot;Helvetica Neue&quot;, sans-serif; font-size: 12px; font-weight: 200;" fill="rgb(50, 49, 63)" stroke="none" stroke-width="1px">1</text><text x="0" y="288.8463302752294" dx="0em" dy="0.3em" style="text-anchor: end; visibility: inherit; font-family: &quot;Helvetica Neue&quot;, sans-serif; font-size: 12px; font-weight: 200;" fill="rgb(50, 49, 63)" stroke="none" stroke-width="1px">1.5</text><text x="0" y="261.5366972477064" dx="0em" dy="0.3em" style="text-anchor: end; visibility: inherit; font-family: &quot;Helvetica Neue&quot;, sans-serif; font-size: 12px; font-weight: 200;" fill="rgb(50, 49, 63)" stroke="none" stroke-width="1px">2</text><text x="0" y="234.22706422018348" dx="0em" dy="0.3em" style="text-anchor: end; visibility: inherit; font-family: &quot;Helvetica Neue&quot;, sans-serif; font-size: 12px; font-weight: 200;" fill="rgb(50, 49, 63)" stroke="none" stroke-width="1px">2.5</text><text x="0" y="206.91743119266056" dx="0em" dy="0.3em" style="text-anchor: end; visibility: inherit; font-family: &quot;Helvetica Neue&quot;, sans-serif; font-size: 12px; font-weight: 200;" fill="rgb(50, 49, 63)" stroke="none" stroke-width="1px">3</text><text x="0" y="179.6077981651376" dx="0em" dy="0.3em" style="text-anchor: end; visibility: inherit; font-family: &quot;Helvetica Neue&quot;, sans-serif; font-size: 12px; font-weight: 200;" fill="rgb(50, 49, 63)" stroke="none" stroke-width="1px">3.5</text><text x="0" y="152.29816513761466" dx="0em" dy="0.3em" style="text-anchor: end; visibility: inherit; font-family: &quot;Helvetica Neue&quot;, sans-serif; font-size: 12px; font-weight: 200;" fill="rgb(50, 49, 63)" stroke="none" stroke-width="1px">4</text><text x="0" y="124.98853211009174" dx="0em" dy="0.3em" style="text-anchor: end; visibility: inherit; font-family: &quot;Helvetica Neue&quot;, sans-serif; font-size: 12px; font-weight: 200;" fill="rgb(50, 49, 63)" stroke="none" stroke-width="1px">4.5</text><text x="0" y="97.67889908256882" dx="0em" dy="0.3em" style="text-anchor: end; visibility: inherit; font-family: &quot;Helvetica Neue&quot;, sans-serif; font-size: 12px; font-weight: 200;" fill="rgb(50, 49, 63)" stroke="none" stroke-width="1px">5</text><text x="0" y="70.36926605504584" dx="0em" dy="0.3em" style="text-anchor: end; visibility: inherit; font-family: &quot;Helvetica Neue&quot;, sans-serif; font-size: 12px; font-weight: 200;" fill="rgb(50, 49, 63)" stroke="none" stroke-width="1px">5.5</text><text x="0" y="43.05963302752292" dx="0em" dy="0.3em" style="text-anchor: end; visibility: inherit; font-family: &quot;Helvetica Neue&quot;, sans-serif; font-size: 12px; font-weight: 200;" fill="rgb(50, 49, 63)" stroke="none" stroke-width="1px">6</text><text x="0" y="15.75" dx="0em" dy="0.3em" style="text-anchor: end; visibility: inherit; font-family: &quot;Helvetica Neue&quot;, sans-serif; font-size: 12px; font-weight: 200;" fill="rgb(50, 49, 63)" stroke="none" stroke-width="1px">6.5</text></g><line x1="40" y1="0" x2="40" y2="378" fill="rgb(0, 0, 0)" stroke="rgb(204, 204, 204)" stroke-width="1px"></line></g></g><g transform="translate(40, 0)" clip-path="url(#clip_0)"><clipPath id="clip_0"><rect width="754" height="378"></rect></clipPath><g><g><g><line x1="25.113550724637683" y1="0" x2="25.113550724637683" y2="378" fill="rgb(0, 0, 0)" stroke="rgb(60, 60, 60)" stroke-width="1px" opacity="0.25"></line><line x1="80.84449275362319" y1="0" x2="80.84449275362319" y2="378" fill="rgb(0, 0, 0)" stroke="rgb(60, 60, 60)" stroke-width="1px" opacity="0.25"></line><line x1="136.5754347826087" y1="0" x2="136.5754347826087" y2="378" fill="rgb(0, 0, 0)" stroke="rgb(60, 60, 60)" stroke-width="1px" opacity="0.25"></line><line x1="192.3063768115942" y1="0" x2="192.3063768115942" y2="378" fill="rgb(0, 0, 0)" stroke="rgb(60, 60, 60)" stroke-width="1px" opacity="0.25"></line><line x1="248.0373188405797" y1="0" x2="248.0373188405797" y2="378" fill="rgb(0, 0, 0)" stroke="rgb(60, 60, 60)" stroke-width="1px" opacity="0.25"></line><line x1="303.76826086956527" y1="0" x2="303.76826086956527" y2="378" fill="rgb(0, 0, 0)" stroke="rgb(60, 60, 60)" stroke-width="1px" opacity="0.25"></line><line x1="359.4992028985508" y1="0" x2="359.4992028985508" y2="378" fill="rgb(0, 0, 0)" stroke="rgb(60, 60, 60)" stroke-width="1px" opacity="0.25"></line><line x1="415.23014492753623" y1="0" x2="415.23014492753623" y2="378" fill="rgb(0, 0, 0)" stroke="rgb(60, 60, 60)" stroke-width="1px" opacity="0.25"></line><line x1="470.9610869565218" y1="0" x2="470.9610869565218" y2="378" fill="rgb(0, 0, 0)" stroke="rgb(60, 60, 60)" stroke-width="1px" opacity="0.25"></line><line x1="526.6920289855074" y1="0" x2="526.6920289855074" y2="378" fill="rgb(0, 0, 0)" stroke="rgb(60, 60, 60)" stroke-width="1px" opacity="0.25"></line><line x1="582.4229710144929" y1="0" x2="582.4229710144929" y2="378" fill="rgb(0, 0, 0)" stroke="rgb(60, 60, 60)" stroke-width="1px" opacity="0.25"></line><line x1="638.1539130434783" y1="0" x2="638.1539130434783" y2="378" fill="rgb(0, 0, 0)" stroke="rgb(60, 60, 60)" stroke-width="1px" opacity="0.25"></line><line x1="693.8848550724638" y1="0" x2="693.8848550724638" y2="378" fill="rgb(0, 0, 0)" stroke="rgb(60, 60, 60)" stroke-width="1px" opacity="0.25"></line><line x1="749.6157971014493" y1="0" x2="749.6157971014493" y2="378" fill="rgb(0, 0, 0)" stroke="rgb(60, 60, 60)" stroke-width="1px" opacity="0.25"></line></g><g><line x1="0" y1="370.7752293577982" x2="754.5" y2="370.7752293577982" fill="rgb(0, 0, 0)" stroke="rgb(60, 60, 60)" stroke-width="1px" opacity="0.25"></line><line x1="0" y1="343.4655963302752" x2="754.5" y2="343.4655963302752" fill="rgb(0, 0, 0)" stroke="rgb(60, 60, 60)" stroke-width="1px" opacity="0.25"></line><line x1="0" y1="316.1559633027523" x2="754.5" y2="316.1559633027523" fill="rgb(0, 0, 0)" stroke="rgb(60, 60, 60)" stroke-width="1px" opacity="0.25"></line><line x1="0" y1="288.8463302752294" x2="754.5" y2="288.8463302752294" fill="rgb(0, 0, 0)" stroke="rgb(60, 60, 60)" stroke-width="1px" opacity="0.25"></line><line x1="0" y1="261.5366972477064" x2="754.5" y2="261.5366972477064" fill="rgb(0, 0, 0)" stroke="rgb(60, 60, 60)" stroke-width="1px" opacity="0.25"></line><line x1="0" y1="234.22706422018348" x2="754.5" y2="234.22706422018348" fill="rgb(0, 0, 0)" stroke="rgb(60, 60, 60)" stroke-width="1px" opacity="0.25"></line><line x1="0" y1="206.91743119266056" x2="754.5" y2="206.91743119266056" fill="rgb(0, 0, 0)" stroke="rgb(60, 60, 60)" stroke-width="1px" opacity="0.25"></line><line x1="0" y1="179.6077981651376" x2="754.5" y2="179.6077981651376" fill="rgb(0, 0, 0)" stroke="rgb(60, 60, 60)" stroke-width="1px" opacity="0.25"></line><line x1="0" y1="152.29816513761466" x2="754.5" y2="152.29816513761466" fill="rgb(0, 0, 0)" stroke="rgb(60, 60, 60)" stroke-width="1px" opacity="0.25"></line><line x1="0" y1="124.98853211009174" x2="754.5" y2="124.98853211009174" fill="rgb(0, 0, 0)" stroke="rgb(60, 60, 60)" stroke-width="1px" opacity="0.25"></line><line x1="0" y1="97.67889908256882" x2="754.5" y2="97.67889908256882" fill="rgb(0, 0, 0)" stroke="rgb(60, 60, 60)" stroke-width="1px" opacity="0.25"></line><line x1="0" y1="70.36926605504584" x2="754.5" y2="70.36926605504584" fill="rgb(0, 0, 0)" stroke="rgb(60, 60, 60)" stroke-width="1px" opacity="0.25"></line><line x1="0" y1="43.05963302752292" x2="754.5" y2="43.05963302752292" fill="rgb(0, 0, 0)" stroke="rgb(60, 60, 60)" stroke-width="1px" opacity="0.25"></line><line x1="0" y1="15.75" x2="754.5" y2="15.75" fill="rgb(0, 0, 0)" stroke="rgb(60, 60, 60)" stroke-width="1px" opacity="0.25"></line></g></g></g><g><g><line x1="0" y1="370.7752293577982" x2="754.5" y2="370.7752293577982" fill="rgb(0, 0, 0)" stroke="rgb(153, 153, 153)" stroke-width="1.5px"></line></g></g><g><g><line x1="25.113550724637683" y1="0" x2="25.113550724637683" y2="378" fill="rgb(0, 0, 0)" stroke="rgb(153, 153, 153)" stroke-width="1.5px"></line></g></g><g><g><g><g><g><path stroke="rgb(255, 112, 67)" stroke-width="2px" d="M25.113550724637683,42.01261825955237L27.900097826086956,76.75499824456142L30.686644927536232,109.57285513863638L33.47319202898551,114.3703957356675L36.25973913043478,118.66500519035122L39.046286231884054,127.72484128468466L41.83283333333333,133.46501764480587L44.619380434782606,138.8495954082839L47.405927536231886,144.7424037112116L50.19247463768116,147.3879464256663L52.97902173913044,154.03067038811875L55.76556884057971,158.68028685367602L58.55211594202898,162.7874751032847L61.33866304347826,165.4882561649234L64.12521014492754,167.97503899574212L66.91175724637681,169.6613631604006L69.69830434782608,172.0755751705014L72.48485144927537,173.62878553878966L75.27139855072464,176.42755897774242L78.05794565217391,179.2975918295992L80.84449275362319,182.38722636661387L83.63103985507246,184.99616066184686L86.41758695652173,186.24685603218953L89.20413405797102,188.73580088652864L91.99068115942029,189.94075152299595L94.77722826086958,190.67768805113454L97.56377536231885,193.2875935167035L100.35032246376812,195.03654692157554L103.1368695652174,197.09900511200317L105.92341666666667,198.8184429535976L108.70996376811594,200.30886143667948L111.49651086956523,201.3227861267739L114.2830579710145,202.98908970267175L117.06960507246377,204.4460422282547L119.85615217391305,206.02387550842684L122.64269927536232,207.21191817441624L125.42924637681159,208.9111303211819L128.21579347826088,210.06608776362506L131.00234057971014,211.11289226508615L133.78888768115942,212.53824920484314L136.5754347826087,213.9677012983391L139.36198188405797,215.06249893527945L142.14852898550726,216.08244490918327L144.9350760869565,217.18741020391414L147.7216231884058,218.13306967053504L150.50817028985506,219.14619956869166L153.29471739130435,220.10623868199218L156.08126449275363,220.93584688766163L158.8678115942029,221.71009491471713L161.65435869565218,222.77237275547301L164.44090579710144,223.61454907488945L167.22745289855072,224.50054293239882L170.014,225.40908563436153L172.80054710144927,226.36413309752393L175.58709420289856,227.20695027774195L178.3736413043478,228.14736653895028L181.1601884057971,228.34924957625964L183.94673550724636,228.98451635280696L186.73328260869565,229.27160775396405L189.51982971014493,230.1261522952982L192.3063768115942,230.76566740579844L195.09292391304348,231.36543766490755L197.87947101449274,231.87211052311315L200.66601811594202,232.4733717182385L203.4525652173913,233.26485776360002L206.23911231884057,233.5402076730375L209.02565942028986,234.20911232428446L211.8122065217391,234.7317413220001L214.5987536231884,235.13410960924156L217.38530072463766,235.48815171189733L220.17184782608695,235.91204450090135L222.95839492753623,236.30826853735448L225.7449420289855,236.63332013751344L228.53148913043478,236.96102856958242L231.31803623188404,237.44848003467757L234.10458333333332,238.00772449825251L236.8911304347826,238.53870554097247L239.67767753623187,238.95874277269658L242.46422463768116,239.32399891096296L245.2507717391304,239.79306439825422L248.0373188405797,239.97404695108608L250.82386594202896,240.00600673826352L253.61041304347825,240.57910105557337L256.3969601449275,240.9211842866894L259.1835072463768,240.99880532160188L261.9700543478261,241.21958150840035L264.75660144927537,241.522825414721L267.5431485507246,241.6562790591926L270.3296956521739,241.6913121593102L273.11624275362317,241.90002102021072L275.9027898550725,242.19942403431315L278.68933695652174,242.37050471975823L281.47588405797103,242.30514625128276L284.2624311594203,242.67968331748457L287.0489782608696,243.09536599911365L289.8355253623189,243.4011965556868L292.6220724637681,243.64784887137824L295.4086195652174,243.76598599122468L298.1951666666667,244.0490039084555L300.981713768116,244.28681909165044L303.76826086956527,244.61760404325918L306.5548079710145,245.045164567345L309.3413550724638,245.46385838745636L312.12790217391307,245.75686509422607L314.91444927536236,246.07936144733932L317.7009963768116,246.43242681068125L320.4875434782609,246.6962567251581L323.27409057971016,246.97841634838358L326.06063768115945,247.27510297271053L328.84718478260874,247.4843745228771L331.63373188405797,247.7971631660856L334.42027898550725,248.18220122968984L337.20682608695654,248.48670124754176L339.9933731884058,248.77062349966153L342.7799202898551,248.85676707705497L345.56646739130434,249.1187567627812L348.35301449275363,249.22247702543254L351.1395615942029,249.33221958758213L353.9261086956522,249.40121862164216L356.7126557971015,249.54333221249138L359.4992028985508,249.77102499197602L362.28575000000006,249.86572385705108L365.07229710144935,250.00870807221258L367.8588442028986,250.20055203223023L370.64539130434787,250.48178621026824L373.43193840579715,250.56784916429336L376.21848550724644,250.74579861102285L379.0050326086957,251.0693952680539L381.79157971014496,251.2331536062286L384.57812681159425,251.26844262106863L387.3646739130435,251.5313123881196L390.1512210144928,251.7557805817925L392.93776811594205,251.7191953395445L395.72431521739134,251.96543344443774L398.51086231884057,252.1921581812189L401.2974094202899,252.31103463332073L404.08395652173914,252.39671921876078L406.8705036231885,252.6575606668613L409.6570507246377,252.8391666484332L412.443597826087,253.14025445203782L415.23014492753623,253.34365773841944L418.0166920289856,253.57088680807163L420.8032391304348,253.72319365939586L423.5897862318841,253.9051285575743L426.3763333333333,254.10446116383474L429.16288043478266,254.366162666842L431.9494275362319,254.41193857146874L434.7359746376812,254.56083005397306L437.5225217391305,254.72461917458992L440.30906884057976,254.9065420159452L443.0956159420291,255.03545481458576L445.88216304347833,255.14622084096678L448.6687101449276,255.28088481842508L451.45525724637685,255.3909839731278L454.2418043478262,255.55950006489059L457.0283514492754,255.76041535648707L459.8148985507247,255.9330646386864L462.60144565217394,256.0913870582636L465.3879927536233,256.3069623369745L468.1745398550725,256.4858270950855L470.9610869565218,256.75602033849316L473.7476340579711,256.9815509552974L476.53418115942037,257.1431419544021L479.3207282608696,257.34846759365183L482.10727536231894,257.53408057383183L484.8938224637682,257.61177817199456L487.68036956521746,257.8128639703645L490.4669166666667,257.92479754068813L493.25346376811603,258.05760544458L496.04001086956526,258.17576250701654L498.82655797101455,258.3113358415613L501.6131050724638,258.41138504350744L504.3996521739131,258.5633096730319L507.18619927536236,258.7241498479067L509.9727463768117,258.83590913530963L512.7592934782609,258.9644223601386L515.5458405797102,259.13951711153436L518.3323876811595,259.3264542716692L521.1189347826088,259.4615091905763L523.905481884058,259.5004980322283L526.6920289855074,259.6038405820903L529.4785760869565,259.7054691973415L532.2651231884058,259.87504876815814L535.0516702898551,259.97329450591735L537.8382173913044,260.0584559386736L540.6247644927537,260.1934418196332L543.411311594203,260.30759437479537L546.1978586956523,260.4718825387081L548.9844057971015,260.66673157317507L551.7709528985507,260.8189559282256L554.5575000000001,260.9588914310219L557.3440471014493,261.1539087809296L560.1305942028986,261.1973942525872L562.9171413043479,261.31736315695L565.7036884057972,261.47307635828184L568.4902355072464,261.6006618805704L571.2767826086957,261.7690384105291L574.063329710145,261.92248050203716L576.8498768115943,262.0417411497129L579.6364239130435,262.18040872794506L582.4229710144929,262.2736725356706L585.209518115942,262.39091970609365L587.9960652173913,262.5230423512892L590.7826123188406,262.65431625012866L593.5691594202899,262.85504911576527L596.3557065217392,262.9846437020285L599.1422536231885,263.084077575987L601.9288007246377,263.1962806032484L604.715347826087,263.31815811916283L607.5018949275362,263.4642048529975L610.2884420289856,263.5481368265829L613.0749891304348,263.6901747639465L615.8615362318841,263.74129849896656L618.6480833333334,263.8054405756432L621.4346304347827,263.94809216832186L624.221177536232,264.1031972166367L627.0077246376812,264.18153009658295L629.7942717391304,264.2257304952761L632.5808188405798,264.26366016337096L635.367365942029,264.3747135972116L638.1539130434783,264.48091253281956L640.9404601449276,264.66278006524846L643.7270072463768,264.7266809155919L646.5135543478261,264.85649175447634L649.3001014492754,264.9149984837613L652.0866485507247,264.9927199548257L654.873195652174,265.09755882501037L657.6597427536232,265.2657968279045L660.4462898550726,265.35875652747075L663.2328369565217,265.513430852222L666.019384057971,265.6635070934308L668.8059311594203,265.6497717884739L671.5924782608696,265.7384987728698L674.3790253623189,265.87243500032184L677.1655724637682,265.9597685531112L679.9521195652175,266.08409627789L682.7386666666667,266.2369591526482L685.5252137681159,266.3387222830693L688.3117608695653,266.4272590257563L691.0983079710145,266.53110288613766L693.8848550724638,266.61035423748285L696.6714021739131,266.6939690533609L699.4579492753624,266.77751320852474L702.2444963768116,266.9107917713586L705.0310434782609,267.0396131857924L707.8175905797102,267.1662994137143L710.6041376811595,267.305067735402L713.3906847826087,267.3667970987067L716.1772318840581,267.49942313357957L718.9637789855074,267.5946333925687L721.7503260869565,267.7037542162626L724.5368731884059,267.8452007865657L727.3234202898551,267.9296264453442L730.1099673913044,268.03714413346245L732.8965144927537,268.14028146877683L735.683061594203,268.1609967496843L738.4696086956523,268.2617496557042L25.113550724637683,267.1495356580531L27.900097826086956,266.2198480100033L30.686644927536232,265.7171084752409L33.47319202898551,265.1129792827704L36.25973913043478,264.3413436461881L39.046286231884054,263.7620365091764L41.83283333333333,263.13441549537674L44.619380434782606,262.39919042794673L47.405927536231886,261.77632855753257L50.19247463768116,261.31111623955485L52.97902173913044,260.87307750467306L55.76556884057971,260.5601282894696L58.55211594202898,260.31035923598733L61.33866304347826,259.8943699756502L64.12521014492754,259.6447624148989L66.91175724637681,259.4592052396007L69.69830434782608,259.355251087511L72.48485144927537,259.2464507975494L75.27139855072464,259.05654044129227L78.05794565217391,258.96287867601427L80.84449275362319,258.63234408245717L83.63103985507246,258.47324680157016L86.41758695652173,258.3455195265467L89.20413405797102,258.02624688577293L91.99068115942029,257.9426934480628L94.77722826086958,257.7519725762301L97.56377536231885,257.5634177461744L100.35032246376812,257.4174751397717L103.1368695652174,257.3386959521273L105.92341666666667,257.2032277004639L108.70996376811594,257.16401211714395L111.49651086956523,257.1563133512921L114.2830579710145,257.0987237754615L117.06960507246377,257.0016283424362L119.85615217391305,256.91029446645206L122.64269927536232,256.8307933666775L125.42924637681159,256.79503079597873L128.21579347826088,256.7739952483329L131.00234057971014,256.7787839820147L133.78888768115942,256.7678582023232L136.5754347826087,256.7623045538674L139.36198188405797,256.7843088770057L142.14852898550726,256.77045187447067L144.9350760869565,256.83310332964635L147.7216231884058,256.853573409904L150.50817028985506,256.8873092986811L153.29471739130435,256.8586721313073L156.08126449275363,256.88612782162375L158.8678115942029,256.85897830564045L161.65435869565218,256.81973798754524L164.44090579710144,256.8357381990686L167.22745289855072,256.89683381532103L170.014,256.93503759533235L172.80054710144927,256.9186997992439L175.58709420289856,256.9563893443886L178.3736413043478,256.9771774068238L181.1601884057971,256.8950828659253L183.94673550724636,256.95962302589874L186.73328260869565,256.97012717947723L189.51982971014493,256.98112486365744L192.3063768115942,257.02655827773606L195.09292391304348,257.05685154095033L197.87947101449274,257.154048409635L200.66601811594202,257.21261554195326L203.4525652173913,257.20654104913615L206.23911231884057,257.2503058905205L209.02565942028986,257.29931550448373L211.8122065217391,257.369293533298L214.5987536231884,257.4156622906454L217.38530072463766,257.4949392737888L220.17184782608695,257.5007624401725L222.95839492753623,257.5477295667597L225.7449420289855,257.6335038598119L228.53148913043478,257.684591939362L231.31803623188404,257.71977472612707L234.10458333333332,257.7608180511784L236.8911304347826,257.8137005528882L239.67767753623187,257.86252636077114L242.46422463768116,257.96588972616183L245.2507717391304,257.9724284890641L248.0373188405797,258.037576810124L250.82386594202896,258.0853462477206L253.61041304347825,258.1736907342995L256.3969601449275,258.25428331607554L259.1835072463768,258.2842349056032L261.9700543478261,258.3090699380901L264.75660144927537,258.3565798385201L267.5431485507246,258.40134636968753L270.3296956521739,258.47936227268605L273.11624275362317,258.55805304940685L275.9027898550725,258.63295337174134L278.68933695652174,258.6839156436279L281.47588405797103,258.7432338348927L284.2624311594203,258.7994929998908L287.0489782608696,258.8229954384069L289.8355253623189,258.8386174704443L292.6220724637681,258.820672097131L295.4086195652174,258.91728214808535L298.1951666666667,258.9643392892986L300.981713768116,259.0162671544493L303.76826086956527,258.9595384403931L306.5548079710145,258.93298779248164L309.3413550724638,258.99155293278665L312.12790217391307,259.00512489878236L314.91444927536236,259.0836502931301L317.7009963768116,259.17098835029725L320.4875434782609,259.2314036103447L323.27409057971016,259.3098352786921L326.06063768115945,259.39541489182216L328.84718478260874,259.4301177342429L331.63373188405797,259.4926708008781L334.42027898550725,259.5968798235791L337.20682608695654,259.61943480733095L339.9933731884058,259.69512934093257L342.7799202898551,259.7624809580699L345.56646739130434,259.8346032832309L348.35301449275363,259.9273987486749L351.1395615942029,259.9848579682028L353.9261086956522,260.050266874098L356.7126557971015,260.11605020906825L359.4992028985508,260.14110507619256L362.28575000000006,260.21436701364007L365.07229710144935,260.27711503123146L367.8588442028986,260.2773441425029L370.64539130434787,260.3379260800816L373.43193840579715,260.40326577514725L376.21848550724644,260.44587518083824L379.0050326086957,260.4959841287898L381.79157971014496,260.5439461431202L384.57812681159425,260.6036091527054L387.3646739130435,260.62342221536767L390.1512210144928,260.6665423664763L392.93776811594205,260.7053387074599L395.72431521739134,260.73996085936693L398.51086231884057,260.7920874051066L401.2974094202899,260.8738455868632L404.08395652173914,260.9015454999689L406.8705036231885,260.9638320375176L409.6570507246377,261.0249868057865L412.443597826087,261.1126106589534L415.23014492753623,261.13980021575964L418.0166920289856,261.1847997769986L420.8032391304348,261.2252940305584L423.5897862318841,261.23795994786974L426.3763333333333,261.28327801214436L429.16288043478266,261.3253664745138L431.9494275362319,261.35616343075L434.7359746376812,261.3981125279374L437.5225217391305,261.4899593867445L440.30906884057976,261.49107536105186L443.0956159420291,261.5720460102732L445.88216304347833,261.65744183290485L448.6687101449276,261.7002809760007L451.45525724637685,261.7927460219267L454.2418043478262,261.8810673003415L457.0283514492754,261.89783003670146L459.8148985507247,261.9920458611074L462.60144565217394,262.03987383009604L465.3879927536233,262.0832896420699L468.1745398550725,262.14862956858684L470.9610869565218,262.2164554809938L473.7476340579711,262.2875220207454L476.53418115942037,262.3460895453206L479.3207282608696,262.4108036061748L482.10727536231894,262.4915922528585L484.8938224637682,262.5770678053517L487.68036956521746,262.62686532592727L490.4669166666667,262.6675077558247L493.25346376811603,262.7446702142444L496.04001086956526,262.75924754064135L498.82655797101455,262.83010502537854L501.6131050724638,262.8856686494995L504.3996521739131,262.93606699766195L507.18619927536236,262.9970710089568L509.9727463768117,263.02727597110834L512.7592934782609,263.06677999908493L515.5458405797102,263.1321405451781L518.3323876811595,263.2053649190921L521.1189347826088,263.23756363667394L523.905481884058,263.23695784643644L526.6920289855074,263.28219275674354L529.4785760869565,263.3418321059806L532.2651231884058,263.3341926738754L535.0516702898551,263.3953350534238L537.8382173913044,263.4269464998008L540.6247644927537,263.48176477499476L543.411311594203,263.53527061292823L546.1978586956523,263.58612016889566L548.9844057971015,263.6512556492287L551.7709528985507,263.70683232979064L554.5575000000001,263.7017653419223L557.3440471014493,263.7639839048481L560.1305942028986,263.831169293065L562.9171413043479,263.8526755069104L565.7036884057972,263.8969811330034L568.4902355072464,263.95235208107295L571.2767826086957,264.0029839791391L574.063329710145,264.0502922227215L576.8498768115943,264.06732821111393L579.6364239130435,264.1328541280878L582.4229710144929,264.1607790122423L585.209518115942,264.19355418351785L587.9960652173913,264.22274693081454L590.7826123188406,264.2383173431052L593.5691594202899,264.22965399800535L596.3557065217392,264.2728611287481L599.1422536231885,264.3066772711689L601.9288007246377,264.2823058634292L604.715347826087,264.2798871506475L607.5018949275362,264.29218372674154L610.2884420289856,264.3292081902912L613.0749891304348,264.39275610671433L615.8615362318841,264.3785373222516L618.6480833333334,264.40302085132475L621.4346304347827,264.45044208740404L624.221177536232,264.4911829091158L627.0077246376812,264.5407426162046L629.7942717391304,264.580642074104L632.5808188405798,264.60763193331854L635.367365942029,264.6516106207646L638.1539130434783,264.6923337733075L640.9404601449276,264.7235833605068L643.7270072463768,264.73283062273873L646.5135543478261,264.7851050794062L649.3001014492754,264.82937544949067L652.0866485507247,264.8835894987307L654.873195652174,264.8998805758423L657.6597427536232,264.92219601795944L660.4462898550726,264.94667302768914L663.2328369565217,264.9990258391699L666.019384057971,265.07107904225927L668.8059311594203,265.1254172691169L671.5924782608696,265.1480559309769L674.3790253623189,265.1709440851239L677.1655724637682,265.2124060224646L679.9521195652175,265.27282369161753L682.7386666666667,265.340936625555L685.5252137681159,265.3885170907952L688.3117608695653,265.43698076015465L691.0983079710145,265.50263435899467L693.8848550724638,265.54006628595204L696.6714021739131,265.5762627187647L699.4579492753624,265.5191295071279L702.2444963768116,265.49752479655734L705.0310434782609,265.52563701267917L707.8175905797102,265.5327160021492L710.6041376811595,265.5489137280267L713.3906847826087,265.56436093836203L716.1772318840581,265.59150279448994L718.9637789855074,265.5883059854895L721.7503260869565,265.6253512694626L724.5368731884059,265.67342112590603L727.3234202898551,265.6936219437205L730.1099673913044,265.72932139915235L732.8965144927537,265.7612071956359L735.683061594203,265.8158982547899" style="fill: none;" fill="none"></path></g></g></g></g><g opacity="0.2"><g><g><g><path stroke="rgb(255, 112, 67)" stroke-width="2px" d="M25.113550724637683,42.01261825955237L27.900097826086956,111.46263584959394L30.686644927536232,175.11014817395338L33.47319202898551,128.73425146855342L36.25973913043478,135.80053983915835L39.046286231884054,172.8883052758121L41.83283333333333,167.78573280736939L44.619380434782606,176.39117273496922L47.405927536231886,191.6732232898747L50.19247463768116,171.07909834384918L52.97902173913044,220.09365405511417L55.76556884057971,209.52021390582445L58.55211594202898,211.75454513961023L61.33866304347826,200.35361927583676L64.12521014492754,202.53001452914071L66.91175724637681,194.7548080103113L69.69830434782608,210.376270431991L72.48485144927537,199.79698329343708L75.27139855072464,226.32959181671842L78.05794565217391,233.28616774957115L80.84449275362319,243.53518463930953L83.63103985507246,239.18511578249274L86.41758695652173,213.44793219960064L89.20413405797102,245.29959503882523L91.99068115942029,218.50083781491725L94.77722826086958,208.86350194904782L97.56377536231885,260.2366471826483L100.35032246376812,241.60287839885152L103.1368695652174,254.01796389938494L105.92341666666667,247.94111893920723L108.70996376811594,244.33502412170446L111.49651086956523,232.25653768241952L114.2830579710145,255.44001940412258L117.06960507246377,251.7167764453713L119.85615217391305,258.74164104571037L122.64269927536232,248.05335769303346L125.42924637681159,268.9641837056624L128.21579347826088,251.99723659633497L131.00234057971014,250.12526242995483L133.78888768115942,267.0293446380064L136.5754347826087,269.9887285850464L139.36198188405797,259.0190279461922L142.14852898550726,258.0116268560427L144.9350760869565,263.670106061008L147.7216231884058,258.81916248689004L150.50817028985506,263.7036709047239L153.29471739130435,263.2456328715753L156.08126449275363,259.0058233869185L158.8678115942029,257.97758670028196L161.65435869565218,273.5432748346154L164.44090579710144,264.6669200636925L167.22745289855072,268.53074469861633L170.014,271.42235435695824L172.80054710144927,275.63836568375245L175.58709420289856,271.48932126629245L178.3736413043478,278.44774635833335L181.1601884057971,239.33832252791169L183.94673550724636,264.1639617867426L186.73328260869565,245.4408994497509L189.51982971014493,279.0605668288852L192.3063768115942,267.9889475675898L195.09292391304348,266.8396104874961L197.87947101449274,262.316117845544L200.66601811594202,269.16535790086886L203.4525652173913,282.3077164079071L206.23911231884057,250.85973022837157L209.02565942028986,276.90940869182623L211.8122065217391,268.5831071570379L214.5987536231884,261.5719354502652L217.38530072463766,259.08110500147586L220.17184782608695,264.5549873326896L222.95839492753623,263.450655141008L225.7449420289855,259.20266768473005L228.53148913043478,260.0194751560141L231.31803623188404,272.19954163929737L234.10458333333332,278.3958201452133L236.8911304347826,277.37774732298806L239.67767753623187,270.0716021700737L242.46422463768116,266.7169669576741L245.2507717391304,275.4047986471325L248.0373188405797,253.88141260890785L250.82386594202896,242.4913863665467L253.61041304347825,285.6742148880565L256.3969601449275,268.1535357575898L259.1835072463768,247.24937713583674L261.9700543478261,259.20075341430277L264.75660144927537,266.49884430695016L267.5431485507246,252.7702242037572L270.3296956521739,244.64092974487792L273.11624275362317,259.6632255228287L275.9027898550725,267.9552264569003L278.68933695652174,257.2437179252642L281.47588405797103,236.56347685450808L284.2624311594203,275.9236115107842L287.0489782608696,280.3697520007781L289.8355253623189,271.1032116188916L292.6220724637681,266.21358545767055L295.4086195652174,254.68133022478963L298.1951666666667,270.4551855014005L300.981713768116,266.69087688419796L303.76826086956527,276.07943572801184L306.5548079710145,286.09804347622287L309.3413550724638,286.04346072455064L312.12790217391307,274.41924888879885L314.91444927536236,277.9170962714274L317.7009963768116,281.6058758513643L320.4875434782609,273.2170805493626L323.27409057971016,275.5953011102633L326.06063768115945,277.63162906618294L328.84718478260874,269.0843725417732L331.63373188405797,280.36188656310424L334.42027898550725,288.6134469066191L337.20682608695654,280.7332029369993L339.9933731884058,279.0915142007924L342.7799202898551,258.1331504725535L345.56646739130434,277.5646686679726L348.35301449275363,260.5764106501133L351.1395615942029,261.44301519700144L353.9261086956522,257.07702013111987L356.7126557971015,265.47892883666066L359.4992028985508,275.5047899768987L362.28575000000006,260.6524605772911L365.07229710144935,266.42197397816074L367.8588442028986,272.39209510645736L370.64539130434787,283.261960682519L373.43193840579715,260.6751453329664L376.21848550724644,271.80118456783646L379.0050326086957,289.64307697377075L381.79157971014496,270.8977075262901L384.57812681159425,255.5370611947611L387.3646739130435,283.5592911555133L390.1512210144928,279.30181699170976L392.93776811594205,247.19750952283175L395.72431521739134,282.6143382547099L398.51086231884057,280.61053987380564L401.2974094202899,267.3152350663045L404.08395652173914,263.286333907088L406.8705036231885,286.03521113056655L409.6570507246377,276.2359175687536L412.443597826087,292.1921429147414L415.23014492753623,279.9024225938211L418.0166920289856,283.43796287271954L420.8032391304348,273.8745998855031L423.5897862318841,278.134242253566L426.3763333333333,280.82309551359316L429.16288043478266,289.6711138732936L431.9494275362319,260.62691092709883L434.7359746376812,274.90428204164596L437.5225217391305,277.2448227285245L440.30906884057976,280.07677095855047L443.0956159420291,272.9823415104402L445.88216304347833,270.6619983299063L448.6687101449276,274.25988262016836L451.45525724637685,271.00238686526586L454.2418043478262,279.59852890793337L457.0283514492754,284.59328367567934L459.8148985507247,280.8572463584602L462.60144565217394,279.08260698329417L465.3879927536233,287.79636596813117L468.1745398550725,282.76542888486057L470.9610869565218,296.6842324061131L473.7476340579711,290.50165330488744L476.53418115942037,281.29745693436456L479.3207282608696,288.2145819674938L482.10727536231894,285.5943624645198L484.8938224637682,269.4236867416889L487.68036956521746,288.55306925467397L490.4669166666667,275.13091473131004L493.25346376811603,278.58472738298804L496.04001086956526,276.5381899847897L498.82655797101455,279.4947415929322L501.6131050724638,274.12844256195456L504.3996521739131,282.5575547431587L507.18619927536236,284.2617502688268L509.9727463768117,276.6745329193019L512.7592934782609,279.58512250381875L515.5458405797102,287.3813208861088L518.3323876811595,289.6349706245125L521.1189347826088,281.47127138693395L523.905481884058,265.8870656162227L526.6920289855074,276.6181791419283L529.4785760869565,276.5224200426985L532.2651231884058,288.07750327598063L535.0516702898551,276.39416392407287L537.8382173913044,274.36324671211594L540.6247644927537,282.9795537055086L543.411311594203,279.6717334739659L546.1978586956523,288.4769737496289L548.9844057971015,294.0427671058462L551.7709528985507,287.0197321313237L554.5575000000001,285.1602267672163L557.3440471014493,295.04254366990625L560.1305942028986,268.7898548743047L562.9171413043479,282.3625530934115L565.7036884057972,288.9168457470903L568.4902355072464,284.192022642958L571.2767826086957,291.7215905014528L574.063329710145,289.34433358688966L576.8498768115943,283.4528082352166L579.6364239130435,287.1892687754894L582.4229710144929,279.17025973326565L585.209518115942,283.72845666561653L587.9960652173913,286.67567783320715L590.7826123188406,286.7589420856686L593.5691594202899,299.87746336810085L596.3557065217392,286.99214449935005L599.1422536231885,281.5851965218509L601.9288007246377,284.16450012222344L604.715347826087,286.19330121891215L607.5018949275362,290.9941482057265L610.2884420289856,279.43741765809716L613.0749891304348,290.6945844172338L615.8615362318841,273.50235242089L618.6480833333334,276.1039175538842L621.4346304347827,291.41498818802177L624.221177536232,294.09303298237126L627.0077246376812,279.39043989914273L629.7942717391304,272.843140192535L632.5808188405798,271.68901092524925L635.367365942029,286.2044352407849L638.1539130434783,285.44160498665013L640.9404601449276,300.704122169849L643.7270072463768,277.4413154256453L646.5135543478261,290.789379870126L649.3001014492754,276.6499078487037L652.0866485507247,280.64365544997224L654.873195652174,286.2928042143857L657.6597427536232,299.4124844768726L660.4462898550726,284.30046541154934L663.2328369565217,297.1532742386564L666.019384057971,296.4820034088345L668.8059311594203,262.81829478762563L671.5924782608696,284.0995516612989L674.3790253623189,293.6951186673357L677.1655724637682,284.17074429004566L679.9521195652175,292.1074527261454L682.7386666666667,298.3537952637454L685.5252137681159,287.7996671079496L688.3117608695653,285.1686521615457L691.0983079710145,288.59445395819637L693.8848550724638,283.51095257166327L696.6714021739131,284.59078991522483L699.4579492753624,284.72478884513225L702.2444963768116,295.6467173679159L705.0310434782609,294.915459553583L707.8175905797102,294.67925551178257L710.6041376811595,297.55043326331935L713.3906847826087,280.8692854265554L716.1772318840581,296.6131113997293L718.9637789855074,288.5691321973407L721.7503260869565,291.8276762431915L724.5368731884059,299.2255826652597L727.3234202898551,286.7253446863332L730.1099673913044,292.05732358322234L732.8965144927537,291.26185306496575L735.683061594203,272.82104794913477L738.4696086956523,291.0048264489261L25.113550724637683,15.228068307999024L27.900097826086956,54.923239355787246L30.686644927536232,151.06800547652287L33.47319202898551,126.87634132980205L36.25973913043478,87.18163908293485L39.046286231884054,130.3132771483255L41.83283333333333,118.07369248145216L44.619380434782606,91.9036103147979L47.405927536231886,116.85949809616858L50.19247463768116,152.71697364925242L52.97902173913044,158.28669321318284L55.76556884057971,187.02971110103326L58.55211594202898,201.43389286469974L61.33866304347826,161.5183593395653L64.12521014492754,200.42551510596493L66.91175724637681,215.29452600501L69.69830434782608,234.5338944229511L72.48485144927537,233.18525835133474L75.27139855072464,213.42262997211665L78.05794565217391,236.3856580607388L80.84449275362319,178.70626794963803L83.63103985507246,219.88170394984954L86.41758695652173,227.26664672422845L89.20413405797102,180.09888015208986L91.99068115942029,237.48607706695523L94.77722826086958,210.9134251316753L97.56377536231885,211.11476210497935L100.35032246376812,221.3560828462653L103.1368695652174,237.81367775497088L105.92341666666667,223.5263576431012L108.70996376811594,247.38574611484458L111.49651086956523,255.23088210438368L114.2830579710145,242.65266690560435L117.06960507246377,232.57308248204922L119.85615217391305,233.8630533273067L122.64269927536232,236.71008132029016L125.42924637681159,247.71730556619275L128.21579347826088,251.4188013711107L131.00234057971014,258.00145648050744L133.78888768115942,253.97013318319932L136.5754347826087,255.33607582214773L139.36198188405797,262.45155573383386L142.14852898550726,253.19128556426512L144.9350760869565,273.0619400001447L147.7216231884058,262.1711606941092L150.50817028985506,265.67594242369364L153.29471739130435,249.3771733603346L156.08126449275363,264.07921950915534L158.8678115942029,249.7260914680061L161.65435869565218,246.4813900715714L164.44090579710144,261.06296089482964L167.22745289855072,273.0830620860835L170.014,267.0845133908298L172.80054710144927,252.56630882538786L175.58709420289856,267.02450036182313L178.3736413043478,262.5455633407339L181.1601884057971,234.8448396560249L183.94673550724636,274.3419748703274L186.73328260869565,259.8068348716158L189.51982971014493,259.95913005968845L192.3063768115942,269.3623193989106L195.09292391304348,265.30390331504543L197.87947101449274,283.6856069592161L200.66601811594202,273.2420441984037L203.4525652173913,255.53958751083513L206.23911231884057,269.2919015939083L209.02565942028986,270.81945032810944L211.8122065217391,276.72452532862303L214.5987536231884,270.2742999682732L217.38530072463766,279.5366536974907L220.17184782608695,259.1240002857436L222.95839492753623,270.6738876421517L225.7449420289855,281.6670283270538L228.53148913043478,272.03593662900664L231.31803623188404,267.62836803700947L234.10458333333332,269.3493687734691L236.8911304347826,272.7829318298112L239.67767753623187,271.71840213854375L242.46422463768116,287.37245924647794L245.2507717391304,259.83735902046936L248.0373188405797,276.6651308563871L250.82386594202896,271.77790078876217L253.61041304347825,283.5595450893455L256.3969601449275,281.4699756732774L259.1835072463768,266.9334553162986L261.9700543478261,265.49840360825215L264.75660144927537,272.14362410722526L267.5431485507246,271.4240146935533L270.3296956521739,281.22957846768406L273.11624275362317,281.5607342293503L275.9027898550725,280.5805496371121L278.68933695652174,273.65306540585436L281.47588405797103,276.20860340398383L284.2624311594203,275.4038154674232L287.0489782608696,265.77604444256616L289.8355253623189,263.4712823815302L292.6220724637681,253.48642178850434L295.4086195652174,287.70235185010716L298.1951666666667,273.01805502504385L300.981713768116,274.56100256727376L303.76826086956527,241.9379668793547L306.5548079710145,250.94785177926406L309.3413550724638,276.6459751298668L312.12790217391307,263.1058520636427L314.91444927536236,282.86457376851945L317.7009963768116,285.681572458066L320.4875434782609,277.61186129401585L323.27409057971016,283.2260127674549L326.06063768115945,285.5506142230209L328.84718478260874,270.06020770324477L331.63373188405797,278.6971028704162L334.42027898550725,291.6622285848364L337.20682608695654,266.5752458348187L339.9933731884058,283.09110879132504L342.7799202898551,280.6262642380294L345.56646739130434,282.2259366916954L348.35301449275363,288.8008761192681L351.1395615942029,277.9029215546923L353.9261086956522,280.49230437486545L356.7126557971015,280.7202653338056L359.4992028985508,268.0058048673726L362.28575000000006,283.2614137481112L365.07229710144935,280.05959461369645L367.8588442028986,260.34973238258186L370.64539130434787,279.52031077649616L373.43193840579715,281.13671030746684L376.21848550724644,273.9956416788451L379.0050326086957,276.4647249738011L381.79157971014496,275.86113076581864L384.57812681159425,279.69818165925665L387.3646739130435,266.97785467018775L390.1512210144928,274.52525649705063L392.93776811594205,273.2006790282529L395.72431521739134,271.914334879009L398.51086231884057,277.6512926603676L401.2974094202899,287.3719969566809L404.08395652173914,269.8978918954867L406.8705036231885,281.23517803423994L409.6570507246377,280.969185600587L412.443597826087,289.74804280219826L415.23014492753623,270.0436108484181L418.0166920289856,275.95110147589935L420.8032391304348,274.5403753267516L423.5897862318841,265.4111805924582L426.3763333333333,276.24520894256204L429.16288043478266,275.2491827858697L431.9494275362319,271.56507168177075L434.7359746376812,275.3318545260561L437.5225217391305,292.05890578633057L440.30906884057976,261.8632431336499L443.0956159420291,288.62894338150636L445.88216304347833,290.2498160545979L448.6687101449276,276.07220838048045L451.45525724637685,292.87481472251613L454.2418043478262,291.6287548968551L457.0283514492754,267.55482489253404L459.8148985507247,293.84980343788044L462.60144565217394,278.24383749108796L465.3879927536233,276.8210918072167L468.1745398550725,284.3718208183936L470.9610869565218,285.32986107824047L473.7476340579711,286.55203159030424L476.53418115942037,282.3815265084625L479.3207282608696,284.5914280053672L482.10727536231894,290.2347688472599L484.8938224637682,291.98578586490873L487.68036956521746,279.79281433405134L490.4669166666667,276.70415202193306L493.25346376811603,289.4446439617271L496.04001086956526,267.81285422165456L498.82655797101455,287.44090418093793L501.6131050724638,282.2206887258302L504.3996521739131,280.5064856027244L507.18619927536236,284.30462601972283L509.9727463768117,273.59692649556956L512.7592934782609,276.9161021271977L515.5458405797102,286.08862187993634L518.3323876811595,288.9712787429127L521.1189347826088,274.58836230991085L523.905481884058,263.02301103423497L526.6920289855074,279.28701069595616L529.4785760869565,284.48164394525213L532.2651231884058,260.62138949402976L535.0516702898551,285.1466901406236L537.8382173913044,274.6930286266388L540.6247644927537,283.05381307361324L543.411311594203,282.6730816145556L546.1978586956523,281.8064510231718L548.9844057971015,287.032226978092L551.7709528985507,283.6921571498617L554.5575000000001,261.8764411817997L557.3440471014493,286.2172491326245L560.1305942028986,288.1197214033626L562.9171413043479,271.64121276468313L565.7036884057972,279.970607083325L568.4902355072464,284.07559072533877L571.2767826086957,282.43610926013474L574.063329710145,281.3034406572307L576.8498768115943,270.29109866794096L579.6364239130435,288.11300843461936L582.4229710144929,274.3979705358864L585.209518115942,276.22957573407285L587.9960652173913,274.96163853210044L590.7826123188406,269.97590167095905L593.5691594202899,261.03181167808145L596.3557065217392,280.2488339187902L599.1422536231885,276.83158122782316L601.9288007246377,255.24024510055506L604.715347826087,263.3809991375022L607.5018949275362,268.8697854313282L610.2884420289856,278.135375189125L613.0749891304348,288.12912346627735L615.8615362318841,259.05865464626106L618.6480833333334,273.5787018597673L621.4346304347827,282.25207885416273L624.221177536232,279.8104399464546L627.0077246376812,283.20692866329756L629.7942717391304,279.63322017608436L632.5808188405798,274.80668029435185L635.367365942029,281.29778900168355L638.1539130434783,280.13154253281584L640.9404601449276,276.5904873319722L643.7270072463768,268.25016734742246L646.5135543478261,284.7008279091721L649.3001014492754,281.7230305037367L652.0866485507247,285.6052425525604L654.873195652174,271.1366918179967L657.6597427536232,273.4791011974352L660.4462898550726,274.3475028145204L663.2328369565217,285.1382452129224L666.019384057971,292.83296121807274L668.8059311594203,286.09511998159076L671.5924782608696,273.89843711010906L674.3790253623189,274.03177841650233L677.1655724637682,281.2891943181327L679.9521195652175,288.7365917929816L682.7386666666667,291.8348254572361L685.5252137681159,283.9249168071178L688.3117608695653,284.34699390295447L691.0983079710145,291.1599474647723L693.8848550724638,280.19116489438835L696.6714021739131,279.76577363648545L699.4579492753624,243.08742767080255L702.2444963768116,257.00195989477527L705.0310434782609,276.597161233972L707.8175905797102,268.32494109431536L710.6041376811595,271.9477109001317L713.3906847826087,271.6760016996926L716.1772318840581,276.3464699414892L718.9637789855074,264.3196427592444L721.7503260869565,280.3491898714949L724.5368731884059,284.80794891961125L727.3234202898551,273.74683210117007L730.1099673913044,279.9826135958007L732.8965144927537,278.5109889047955L735.683061594203,287.71730790171057" style="fill: none;" fill="none"></path></g></g></g></g></g></g><g transform="translate(40, 378)" clip-path="url(#clip_1)"><clipPath id="clip_1"><rect width="754" height="22"></rect></clipPath><g><g><line x1="25.113550724637683" y1="0" x2="25.113550724637683" y2="5" style="visibility: inherit;" fill="rgb(0, 0, 0)" stroke="rgb(204, 204, 204)" stroke-width="1px"></line><line x1="80.84449275362319" y1="0" x2="80.84449275362319" y2="5" style="visibility: inherit;" fill="rgb(0, 0, 0)" stroke="rgb(204, 204, 204)" stroke-width="1px"></line><line x1="136.5754347826087" y1="0" x2="136.5754347826087" y2="5" style="visibility: inherit;" fill="rgb(0, 0, 0)" stroke="rgb(204, 204, 204)" stroke-width="1px"></line><line x1="192.3063768115942" y1="0" x2="192.3063768115942" y2="5" style="visibility: inherit;" fill="rgb(0, 0, 0)" stroke="rgb(204, 204, 204)" stroke-width="1px"></line><line x1="248.0373188405797" y1="0" x2="248.0373188405797" y2="5" style="visibility: inherit;" fill="rgb(0, 0, 0)" stroke="rgb(204, 204, 204)" stroke-width="1px"></line><line x1="303.76826086956527" y1="0" x2="303.76826086956527" y2="5" style="visibility: inherit;" fill="rgb(0, 0, 0)" stroke="rgb(204, 204, 204)" stroke-width="1px"></line><line x1="359.4992028985508" y1="0" x2="359.4992028985508" y2="5" style="visibility: inherit;" fill="rgb(0, 0, 0)" stroke="rgb(204, 204, 204)" stroke-width="1px"></line><line x1="415.23014492753623" y1="0" x2="415.23014492753623" y2="5" style="visibility: inherit;" fill="rgb(0, 0, 0)" stroke="rgb(204, 204, 204)" stroke-width="1px"></line><line x1="470.9610869565218" y1="0" x2="470.9610869565218" y2="5" style="visibility: inherit;" fill="rgb(0, 0, 0)" stroke="rgb(204, 204, 204)" stroke-width="1px"></line><line x1="526.6920289855074" y1="0" x2="526.6920289855074" y2="5" style="visibility: inherit;" fill="rgb(0, 0, 0)" stroke="rgb(204, 204, 204)" stroke-width="1px"></line><line x1="582.4229710144929" y1="0" x2="582.4229710144929" y2="5" style="visibility: inherit;" fill="rgb(0, 0, 0)" stroke="rgb(204, 204, 204)" stroke-width="1px"></line><line x1="638.1539130434783" y1="0" x2="638.1539130434783" y2="5" style="visibility: inherit;" fill="rgb(0, 0, 0)" stroke="rgb(204, 204, 204)" stroke-width="1px"></line><line x1="693.8848550724638" y1="0" x2="693.8848550724638" y2="5" style="visibility: inherit;" fill="rgb(0, 0, 0)" stroke="rgb(204, 204, 204)" stroke-width="1px"></line><line x1="749.6157971014493" y1="0" x2="749.6157971014493" y2="5" style="visibility: inherit;" fill="rgb(0, 0, 0)" stroke="rgb(204, 204, 204)" stroke-width="1px"></line></g><g transform="translate(0, 8)"><text x="25.113550724637683" y="0" dx="0em" dy="0.95em" style="text-anchor: middle; visibility: inherit; font-family: &quot;Helvetica Neue&quot;, sans-serif; font-size: 12px; font-weight: 200;" fill="rgb(50, 49, 63)" stroke="none" stroke-width="1px">0</text><text x="80.84449275362319" y="0" dx="0em" dy="0.95em" style="text-anchor: middle; visibility: inherit; font-family: &quot;Helvetica Neue&quot;, sans-serif; font-size: 12px; font-weight: 200;" fill="rgb(50, 49, 63)" stroke="none" stroke-width="1px">20</text><text x="136.5754347826087" y="0" dx="0em" dy="0.95em" style="text-anchor: middle; visibility: inherit; font-family: &quot;Helvetica Neue&quot;, sans-serif; font-size: 12px; font-weight: 200;" fill="rgb(50, 49, 63)" stroke="none" stroke-width="1px">40</text><text x="192.3063768115942" y="0" dx="0em" dy="0.95em" style="text-anchor: middle; visibility: inherit; font-family: &quot;Helvetica Neue&quot;, sans-serif; font-size: 12px; font-weight: 200;" fill="rgb(50, 49, 63)" stroke="none" stroke-width="1px">60</text><text x="248.0373188405797" y="0" dx="0em" dy="0.95em" style="text-anchor: middle; visibility: inherit; font-family: &quot;Helvetica Neue&quot;, sans-serif; font-size: 12px; font-weight: 200;" fill="rgb(50, 49, 63)" stroke="none" stroke-width="1px">80</text><text x="303.76826086956527" y="0" dx="0em" dy="0.95em" style="text-anchor: middle; visibility: inherit; font-family: &quot;Helvetica Neue&quot;, sans-serif; font-size: 12px; font-weight: 200;" fill="rgb(50, 49, 63)" stroke="none" stroke-width="1px">100</text><text x="359.4992028985508" y="0" dx="0em" dy="0.95em" style="text-anchor: middle; visibility: inherit; font-family: &quot;Helvetica Neue&quot;, sans-serif; font-size: 12px; font-weight: 200;" fill="rgb(50, 49, 63)" stroke="none" stroke-width="1px">120</text><text x="415.23014492753623" y="0" dx="0em" dy="0.95em" style="text-anchor: middle; visibility: inherit; font-family: &quot;Helvetica Neue&quot;, sans-serif; font-size: 12px; font-weight: 200;" fill="rgb(50, 49, 63)" stroke="none" stroke-width="1px">140</text><text x="470.9610869565218" y="0" dx="0em" dy="0.95em" style="text-anchor: middle; visibility: inherit; font-family: &quot;Helvetica Neue&quot;, sans-serif; font-size: 12px; font-weight: 200;" fill="rgb(50, 49, 63)" stroke="none" stroke-width="1px">160</text><text x="526.6920289855074" y="0" dx="0em" dy="0.95em" style="text-anchor: middle; visibility: inherit; font-family: &quot;Helvetica Neue&quot;, sans-serif; font-size: 12px; font-weight: 200;" fill="rgb(50, 49, 63)" stroke="none" stroke-width="1px">180</text><text x="582.4229710144929" y="0" dx="0em" dy="0.95em" style="text-anchor: middle; visibility: inherit; font-family: &quot;Helvetica Neue&quot;, sans-serif; font-size: 12px; font-weight: 200;" fill="rgb(50, 49, 63)" stroke="none" stroke-width="1px">200</text><text x="638.1539130434783" y="0" dx="0em" dy="0.95em" style="text-anchor: middle; visibility: inherit; font-family: &quot;Helvetica Neue&quot;, sans-serif; font-size: 12px; font-weight: 200;" fill="rgb(50, 49, 63)" stroke="none" stroke-width="1px">220</text><text x="693.8848550724638" y="0" dx="0em" dy="0.95em" style="text-anchor: middle; visibility: inherit; font-family: &quot;Helvetica Neue&quot;, sans-serif; font-size: 12px; font-weight: 200;" fill="rgb(50, 49, 63)" stroke="none" stroke-width="1px">240</text><text x="749.6157971014493" y="0" dx="0em" dy="0.95em" style="text-anchor: middle; visibility: hidden; font-family: &quot;Helvetica Neue&quot;, sans-serif; font-size: 12px; font-weight: 200;" fill="rgb(50, 49, 63)" stroke="none" stroke-width="1px">260</text></g><line x1="0" y1="0" x2="754.5" y2="0" fill="rgb(0, 0, 0)" stroke="rgb(204, 204, 204)" stroke-width="1px"></line></g></g></g></g></svg>