<svg viewBox="0 0 794.5 400" xmlns="http://www.w3.org/2000/svg"><g><g><g><g><g><line x1="40" y1="373.1611445783132" x2="35" y2="373.1611445783132" style="visibility: inherit;" fill="rgb(0, 0, 0)" stroke="rgb(204, 204, 204)" stroke-width="1px"></line><line x1="40" y1="346.26280120481925" x2="35" y2="346.26280120481925" style="visibility: inherit;" fill="rgb(0, 0, 0)" stroke="rgb(204, 204, 204)" stroke-width="1px"></line><line x1="40" y1="319.3644578313253" x2="35" y2="319.3644578313253" style="visibility: inherit;" fill="rgb(0, 0, 0)" stroke="rgb(204, 204, 204)" stroke-width="1px"></line><line x1="40" y1="292.46611445783134" x2="35" y2="292.46611445783134" style="visibility: inherit;" fill="rgb(0, 0, 0)" stroke="rgb(204, 204, 204)" stroke-width="1px"></line><line x1="40" y1="265.5677710843373" x2="35" y2="265.5677710843373" style="visibility: inherit;" fill="rgb(0, 0, 0)" stroke="rgb(204, 204, 204)" stroke-width="1px"></line><line x1="40" y1="238.66942771084337" x2="35" y2="238.66942771084337" style="visibility: inherit;" fill="rgb(0, 0, 0)" stroke="rgb(204, 204, 204)" stroke-width="1px"></line><line x1="40" y1="211.77108433734938" x2="35" y2="211.77108433734938" style="visibility: inherit;" fill="rgb(0, 0, 0)" stroke="rgb(204, 204, 204)" stroke-width="1px"></line><line x1="40" y1="184.87274096385542" x2="35" y2="184.87274096385542" style="visibility: inherit;" fill="rgb(0, 0, 0)" stroke="rgb(204, 204, 204)" stroke-width="1px"></line><line x1="40" y1="157.97439759036143" x2="35" y2="157.97439759036143" style="visibility: inherit;" fill="rgb(0, 0, 0)" stroke="rgb(204, 204, 204)" stroke-width="1px"></line><line x1="40" y1="131.07605421686748" x2="35" y2="131.07605421686748" style="visibility: inherit;" fill="rgb(0, 0, 0)" stroke="rgb(204, 204, 204)" stroke-width="1px"></line><line x1="40" y1="104.17771084337346" x2="35" y2="104.17771084337346" style="visibility: inherit;" fill="rgb(0, 0, 0)" stroke="rgb(204, 204, 204)" stroke-width="1px"></line><line x1="40" y1="77.27936746987956" x2="35" y2="77.27936746987956" style="visibility: inherit;" fill="rgb(0, 0, 0)" stroke="rgb(204, 204, 204)" stroke-width="1px"></line><line x1="40" y1="50.381024096385545" x2="35" y2="50.381024096385545" style="visibility: inherit;" fill="rgb(0, 0, 0)" stroke="rgb(204, 204, 204)" stroke-width="1px"></line><line x1="40" y1="23.482680722891587" x2="35" y2="23.482680722891587" style="visibility: inherit;" fill="rgb(0, 0, 0)" stroke="rgb(204, 204, 204)" stroke-width="1px"></line></g><g transform="translate(30, 0)"><text x="0" y="373.1611445783132" dx="0em" dy="0.3em" style="text-anchor: end; visibility: hidden; font-family: &quot;Helvetica Neue&quot;, sans-serif; font-size: 12px; font-weight: 200;" fill="rgb(50, 49, 63)" stroke="none" stroke-width="1px">0</text><text x="0" y="346.26280120481925" dx="0em" dy="0.3em" style="text-anchor: end; visibility: inherit; font-family: &quot;Helvetica Neue&quot;, sans-serif; font-size: 12px; font-weight: 200;" fill="rgb(50, 49, 63)" stroke="none" stroke-width="1px">0.5</text><text x="0" y="319.3644578313253" dx="0em" dy="0.3em" style="text-anchor: end; visibility: inherit; font-family: &quot;Helvetica Neue&quot;, sans-serif; font-size: 12px; font-weight: 200;" fill="rgb(50, 49, 63)" stroke="none" stroke-width="1px">1</text><text x="0" y="292.46611445783134" dx="0em" dy="0.3em" style="text-anchor: end; visibility: inherit; font-family: &quot;Helvetica Neue&quot;, sans-serif; font-size: 12px; font-weight: 200;" fill="rgb(50, 49, 63)" stroke="none" stroke-width="1px">1.5</text><text x="0" y="265.5677710843373" dx="0em" dy="0.3em" style="text-anchor: end; visibility: inherit; font-family: &quot;Helvetica Neue&quot;, sans-serif; font-size: 12px; font-weight: 200;" fill="rgb(50, 49, 63)" stroke="none" stroke-width="1px">2</text><text x="0" y="238.66942771084337" dx="0em" dy="0.3em" style="text-anchor: end; visibility: inherit; font-family: &quot;Helvetica Neue&quot;, sans-serif; font-size: 12px; font-weight: 200;" fill="rgb(50, 49, 63)" stroke="none" stroke-width="1px">2.5</text><text x="0" y="211.77108433734938" dx="0em" dy="0.3em" style="text-anchor: end; visibility: inherit; font-family: &quot;Helvetica Neue&quot;, sans-serif; font-size: 12px; font-weight: 200;" fill="rgb(50, 49, 63)" stroke="none" stroke-width="1px">3</text><text x="0" y="184.87274096385542" dx="0em" dy="0.3em" style="text-anchor: end; visibility: inherit; font-family: &quot;Helvetica Neue&quot;, sans-serif; font-size: 12px; font-weight: 200;" fill="rgb(50, 49, 63)" stroke="none" stroke-width="1px">3.5</text><text x="0" y="157.97439759036143" dx="0em" dy="0.3em" style="text-anchor: end; visibility: inherit; font-family: &quot;Helvetica Neue&quot;, sans-serif; font-size: 12px; font-weight: 200;" fill="rgb(50, 49, 63)" stroke="none" stroke-width="1px">4</text><text x="0" y="131.07605421686748" dx="0em" dy="0.3em" style="text-anchor: end; visibility: inherit; font-family: &quot;Helvetica Neue&quot;, sans-serif; font-size: 12px; font-weight: 200;" fill="rgb(50, 49, 63)" stroke="none" stroke-width="1px">4.5</text><text x="0" y="104.17771084337346" dx="0em" dy="0.3em" style="text-anchor: end; visibility: inherit; font-family: &quot;Helvetica Neue&quot;, sans-serif; font-size: 12px; font-weight: 200;" fill="rgb(50, 49, 63)" stroke="none" stroke-width="1px">5</text><text x="0" y="77.27936746987956" dx="0em" dy="0.3em" style="text-anchor: end; visibility: inherit; font-family: &quot;Helvetica Neue&quot;, sans-serif; font-size: 12px; font-weight: 200;" fill="rgb(50, 49, 63)" stroke="none" stroke-width="1px">5.5</text><text x="0" y="50.381024096385545" dx="0em" dy="0.3em" style="text-anchor: end; visibility: inherit; font-family: &quot;Helvetica Neue&quot;, sans-serif; font-size: 12px; font-weight: 200;" fill="rgb(50, 49, 63)" stroke="none" stroke-width="1px">6</text><text x="0" y="23.482680722891587" dx="0em" dy="0.3em" style="text-anchor: end; visibility: inherit; font-family: &quot;Helvetica Neue&quot;, sans-serif; font-size: 12px; font-weight: 200;" fill="rgb(50, 49, 63)" stroke="none" stroke-width="1px">6.5</text></g><line x1="40" y1="0" x2="40" y2="378" fill="rgb(0, 0, 0)" stroke="rgb(204, 204, 204)" stroke-width="1px"></line></g></g><g transform="translate(40, 0)" clip-path="url(#clip_0)"><clipPath id="clip_0"><rect width="754" height="378"></rect></clipPath><g><g><g><line x1="18.235541310541304" y1="0" x2="18.235541310541304" y2="378" fill="rgb(0, 0, 0)" stroke="rgb(60, 60, 60)" stroke-width="1px" opacity="0.25"></line><line x1="73.01381766381765" y1="0" x2="73.01381766381765" y2="378" fill="rgb(0, 0, 0)" stroke="rgb(60, 60, 60)" stroke-width="1px" opacity="0.25"></line><line x1="127.79209401709402" y1="0" x2="127.79209401709402" y2="378" fill="rgb(0, 0, 0)" stroke="rgb(60, 60, 60)" stroke-width="1px" opacity="0.25"></line><line x1="182.57037037037034" y1="0" x2="182.57037037037034" y2="378" fill="rgb(0, 0, 0)" stroke="rgb(60, 60, 60)" stroke-width="1px" opacity="0.25"></line><line x1="237.34864672364668" y1="0" x2="237.34864672364668" y2="378" fill="rgb(0, 0, 0)" stroke="rgb(60, 60, 60)" stroke-width="1px" opacity="0.25"></line><line x1="292.12692307692305" y1="0" x2="292.12692307692305" y2="378" fill="rgb(0, 0, 0)" stroke="rgb(60, 60, 60)" stroke-width="1px" opacity="0.25"></line><line x1="346.9051994301994" y1="0" x2="346.9051994301994" y2="378" fill="rgb(0, 0, 0)" stroke="rgb(60, 60, 60)" stroke-width="1px" opacity="0.25"></line><line x1="401.68347578347567" y1="0" x2="401.68347578347567" y2="378" fill="rgb(0, 0, 0)" stroke="rgb(60, 60, 60)" stroke-width="1px" opacity="0.25"></line><line x1="456.461752136752" y1="0" x2="456.461752136752" y2="378" fill="rgb(0, 0, 0)" stroke="rgb(60, 60, 60)" stroke-width="1px" opacity="0.25"></line><line x1="511.2400284900284" y1="0" x2="511.2400284900284" y2="378" fill="rgb(0, 0, 0)" stroke="rgb(60, 60, 60)" stroke-width="1px" opacity="0.25"></line><line x1="566.0183048433047" y1="0" x2="566.0183048433047" y2="378" fill="rgb(0, 0, 0)" stroke="rgb(60, 60, 60)" stroke-width="1px" opacity="0.25"></line><line x1="620.796581196581" y1="0" x2="620.796581196581" y2="378" fill="rgb(0, 0, 0)" stroke="rgb(60, 60, 60)" stroke-width="1px" opacity="0.25"></line><line x1="675.5748575498575" y1="0" x2="675.5748575498575" y2="378" fill="rgb(0, 0, 0)" stroke="rgb(60, 60, 60)" stroke-width="1px" opacity="0.25"></line><line x1="730.3531339031339" y1="0" x2="730.3531339031339" y2="378" fill="rgb(0, 0, 0)" stroke="rgb(60, 60, 60)" stroke-width="1px" opacity="0.25"></line></g><g><line x1="0" y1="373.1611445783132" x2="754.5" y2="373.1611445783132" fill="rgb(0, 0, 0)" stroke="rgb(60, 60, 60)" stroke-width="1px" opacity="0.25"></line><line x1="0" y1="346.26280120481925" x2="754.5" y2="346.26280120481925" fill="rgb(0, 0, 0)" stroke="rgb(60, 60, 60)" stroke-width="1px" opacity="0.25"></line><line x1="0" y1="319.3644578313253" x2="754.5" y2="319.3644578313253" fill="rgb(0, 0, 0)" stroke="rgb(60, 60, 60)" stroke-width="1px" opacity="0.25"></line><line x1="0" y1="292.46611445783134" x2="754.5" y2="292.46611445783134" fill="rgb(0, 0, 0)" stroke="rgb(60, 60, 60)" stroke-width="1px" opacity="0.25"></line><line x1="0" y1="265.5677710843373" x2="754.5" y2="265.5677710843373" fill="rgb(0, 0, 0)" stroke="rgb(60, 60, 60)" stroke-width="1px" opacity="0.25"></line><line x1="0" y1="238.66942771084337" x2="754.5" y2="238.66942771084337" fill="rgb(0, 0, 0)" stroke="rgb(60, 60, 60)" stroke-width="1px" opacity="0.25"></line><line x1="0" y1="211.77108433734938" x2="754.5" y2="211.77108433734938" fill="rgb(0, 0, 0)" stroke="rgb(60, 60, 60)" stroke-width="1px" opacity="0.25"></line><line x1="0" y1="184.87274096385542" x2="754.5" y2="184.87274096385542" fill="rgb(0, 0, 0)" stroke="rgb(60, 60, 60)" stroke-width="1px" opacity="0.25"></line><line x1="0" y1="157.97439759036143" x2="754.5" y2="157.97439759036143" fill="rgb(0, 0, 0)" stroke="rgb(60, 60, 60)" stroke-width="1px" opacity="0.25"></line><line x1="0" y1="131.07605421686748" x2="754.5" y2="131.07605421686748" fill="rgb(0, 0, 0)" stroke="rgb(60, 60, 60)" stroke-width="1px" opacity="0.25"></line><line x1="0" y1="104.17771084337346" x2="754.5" y2="104.17771084337346" fill="rgb(0, 0, 0)" stroke="rgb(60, 60, 60)" stroke-width="1px" opacity="0.25"></line><line x1="0" y1="77.27936746987956" x2="754.5" y2="77.27936746987956" fill="rgb(0, 0, 0)" stroke="rgb(60, 60, 60)" stroke-width="1px" opacity="0.25"></line><line x1="0" y1="50.381024096385545" x2="754.5" y2="50.381024096385545" fill="rgb(0, 0, 0)" stroke="rgb(60, 60, 60)" stroke-width="1px" opacity="0.25"></line><line x1="0" y1="23.482680722891587" x2="754.5" y2="23.482680722891587" fill="rgb(0, 0, 0)" stroke="rgb(60, 60, 60)" stroke-width="1px" opacity="0.25"></line></g></g></g><g><g><line x1="0" y1="373.1611445783132" x2="754.5" y2="373.1611445783132" fill="rgb(0, 0, 0)" stroke="rgb(153, 153, 153)" stroke-width="1.5px"></line></g></g><g><g><line x1="18.235541310541304" y1="0" x2="18.235541310541304" y2="378" fill="rgb(0, 0, 0)" stroke="rgb(153, 153, 153)" stroke-width="1.5px"></line></g></g><g><g><g><g><g><path stroke="rgb(255, 112, 67)" stroke-width="2px" d="M18.235541310541304,49.34977762311337L20.974455128205122,117.7538612133049L23.71336894586894,180.44282666530952L26.452282763532757,134.76536213920778L29.191196581196575,141.7252305042313L31.930110398860393,178.25444525659805L34.66902421652421,173.22871875906566L37.40793803418803,181.70455868775585L40.14685185185184,196.75645787888263L42.885765669515656,176.47248541698397L45.62467948717948,224.74887010850102L48.3635933048433,214.33466851567647L51.102507122507106,216.53535018268838L53.84142094017093,205.3061250096344L56.58033475783474,207.449743225991L59.31924857549856,199.7916331908789L62.05816239316238,215.1778326242803L64.79707621082619,204.7578720992588L67.53599002849002,230.8908931447799L70.27490384615383,237.7427013678005L73.01381766381765,247.8373655935368L75.75273148148148,243.55280982191303L78.49164529914529,218.20323442551026L81.2305591168091,249.57520354727663L83.96947293447292,223.1800420646926L86.70838675213675,213.68784679921276L89.44730056980056,264.2873000865241L92.18621438746437,245.93416035067602L94.92512820512819,258.16227167198457L97.66404202279202,252.1769454612071L100.40295584045583,248.62515930059442L103.14186965811966,236.7285777775638L105.88078347578346,259.56291067815687L108.61969729344727,255.89574065553137L111.3586111111111,262.8148091022509L114.09752492877492,252.28749387235524L116.83643874643874,272.88339780648073L119.57535256410254,256.17197700904075L122.31426638176637,254.3281952246844L125.05318019943019,270.97769788140994L127.79209401709402,273.89251279310287L130.53100783475782,263.0880184891712L133.26992165242166,262.09578910218664L136.00883547008544,267.6690502468362L138.7477492877493,262.8911630518465L141.4866631054131,267.7021095959178L144.22557692307691,267.25096972591905L146.96449074074073,263.075012793742L149.70340455840454,262.0622615993741L152.44231837606836,277.3935267196362L155.18123219373217,268.6508519904441L157.92014601139599,272.45648649532393L160.6590598290598,275.3045478154378L163.39797364672364,279.45706499574413L166.13688746438743,275.3705061869808L168.87580128205127,282.22413572040665L171.61471509971508,243.70370923682867L174.3536289173789,268.15546838633986L177.0925427350427,249.71437987972453L179.83145655270653,282.8277269670044L182.57037037037034,271.92284895964417L185.30928418803416,270.79082117292535L188.04819800569797,266.3354534201593L190.7871118233618,273.0815422698317L193.5260256410256,286.0259736909206L196.26493945868944,255.05160176107682L199.00385327635325,280.7089657898409L201.7427670940171,272.5080603625042L204.48168091168088,265.60247859107443L207.2205947293447,263.14916064904395L209.95950854700854,268.5406049933419L212.69842236467235,267.4529043105711L215.43733618233614,263.26889256899614L218.17624999999998,264.0733987229416L220.9151638176638,276.0700304700309L223.65407763532758,282.1729915285685L226.39299145299142,281.1702511283647L229.13190527065524,273.9741382819701L231.87081908831908,270.67002468421515L234.60973290598287,279.2270155349769L237.34864672364668,258.02777687684596L240.08756054131052,246.80928717427943L242.82647435897434,289.3417718927544L245.56538817663812,272.08495841184293L248.30430199430197,251.49562145608016L251.04321581196578,263.2670071279428L253.78212962962962,270.4551870131708L256.5210434472934,256.93332323683313L259.2599572649572,248.92645791137073L261.99887108262106,263.7225142950753L264.73778490028485,271.8896356970072L267.4766987179487,261.33944506494396L270.2156125356125,240.97065340790402L272.9545263532763,279.7380149518869L275.6934401709401,284.1171954947423L278.43235398860395,274.99021144390827L281.1712678062678,270.1742242308984L283.9101816239316,258.8156475406813L286.64909544159536,274.3519447558974L289.3880092592592,270.6443275335323L292.12692307692305,279.891492418855L294.8658368945869,289.7592175202556L297.6047507122507,289.70545679797607L300.34366452991446,278.2563083934856L303.0825783475783,281.701477351677L305.8214921652421,285.3347030222775L308.56040598290593,277.0722449989204L311.2993198005698,279.41464898510867L314.03823361823356,281.4203093513308L316.77714743589735,273.00177656975853L319.5160612535612,284.10944851245506L322.25497507122503,292.2367383688688L324.9938888888889,284.4751727722854L327.73280270655266,282.85820826403346L330.47171652421645,262.21548254375L333.2106303418803,281.35435739285253L335.94954415954413,264.62194663429835L338.6884579772079,265.47549990788997L341.42737179487176,261.1752577797476L344.1662856125356,269.4506317156266L346.9051994301994,279.3255009712225L349.6441132478632,264.69685123124754L352.38302706552696,270.37947437005585L355.1219408831908,276.2596840355769L357.8608547008546,286.9658468168184L360.59976851851843,264.7191943490361L363.3386823361823,275.67767275205574L366.07759615384606,293.2508619591055L368.81650997150984,274.7878022924604L371.5554237891737,259.6584909960448L374.29433760683753,287.2586994212435L377.0332514245014,283.0653438442443L379.77216524216516,251.44453498182526L382.51107905982894,286.32797773882567L385.2499928774928,284.35435704438083L387.98890669515663,271.2592827309686L390.7278205128205,267.2910577940294L393.4667343304842,289.69733144486526L396.20564814814804,280.04561760536876L398.94456196581183,295.7615383527724L401.68347578347567,283.65690418126354L404.4223896011395,287.1391983716244L407.16130341880336,277.7198619354202L409.90021723646714,281.9153530630002L412.639131054131,284.56371154501494L415.3780448717947,293.27847661616573L418.11695868945856,264.6716863649437L420.8558725071224,278.73403683017534L423.59478632478624,281.03932841032383L426.33370014245,283.82862681760844L429.07261396011387,276.8410411864878L431.8115277777777,274.55564293337153L434.55044159544144,278.0993422192622L437.2893554131053,274.8909051353673L440.0282692307691,283.35758720751267L442.7671830484329,288.27711976490104L445.50609686609675,284.59734806992924L448.2450106837606,282.8494351913771L450.98392450142444,291.43196286620145L453.7228383190882,286.47679290767894L456.461752136752,300.18597589397285L459.2006659544158,294.0965079237898L461.93957977207964,285.03092896848557L464.6784935897435,291.8438804318388L467.4174074074073,289.26312206595776L470.1563212250711,273.3359806160611L472.89523504273495,292.1772700189108L475.6341488603987,278.9572563769228L478.3730626780625,282.3590537778225L481.11197649572637,280.34333772598256L483.8508903133902,283.2553629544844L486.58980413105405,277.96988167999734L489.32871794871784,286.27204940064127L492.0676317663817,287.9505793310433L494.8065455840455,280.47762730304737L497.54545940170925,283.3443827070745L500.2843732193731,291.0231684631253L503.02328703703694,293.24287769342044L505.7622008547007,285.2021257335163L508.50111467236457,269.8526218569422L511.2400284900284,280.4221222271402L513.9789423076923,280.32780528301936L516.717856125356,291.7088661784508L519.4567699430198,280.20148073244525L522.1956837606837,278.20114962307804L524.9345975783475,286.68769295693164L527.6735113960112,283.4296892951411L530.4124252136751,292.10232053050794L533.1513390313389,297.58429169762564L535.8902528490028,290.66702532211696L538.6291666666665,288.83552455686663L541.3680804843303,298.5690113857209L544.1069943019942,272.7116944093302L546.845908119658,286.0799845227276L549.5848219373219,292.5355679496943L552.3237357549857,287.88190182002194L555.0626495726494,295.29807257221404L557.8015633903133,292.9566177196172L560.540477207977,287.15382015938496L563.2793910256408,290.83400870356934L566.0183048433047,282.9357678698129L568.7572186609685,287.42531725800177L571.4961324786324,290.32815256463476L574.2350462962962,290.41016283739043L576.9739601139601,303.3311160282198L579.7128739316238,290.6398531665285L582.4517877492876,285.31433512844956L585.1907015669515,287.8547937950815L587.9296153846152,289.85304065838636L590.668529202279,294.5815857327487L593.4074430199429,283.198902331921L596.1463568376067,294.2865334470947L598.8852706552705,277.3532206073224L601.6241844729343,279.9156055425305L604.3630982905981,294.9960877635034L607.102012108262,297.63380055793795L609.8409259259258,283.15263206933633L612.5798397435897,276.70393627397266L615.3187535612534,275.5671884715557L618.0576673789172,289.8640069992068L620.796581196581,289.11266515251384L623.5354950142448,304.1453251492187L626.2744088319087,281.23286188007836L629.0133226495725,294.3799012576241L631.7522364672363,280.45337309194616L634.4911502849002,284.3869738919907L637.230064102564,289.95104511477143L639.9689779202278,302.8731398311365L642.7078917378916,287.9887114143874L645.4468055555554,300.64795384349594L648.1857193732193,299.98679251412307L650.924633190883,266.8300674564867L653.6635470085469,287.79082347362873L656.4024608262107,297.2418789283698L659.1413746438745,287.8609439242317L661.8802884615383,295.6781236188239L664.6192022792021,301.83039473266484L667.358116096866,291.43521429005875L670.0970299145298,288.8438230627272L672.8359437321936,292.218031458826L675.5748575498575,287.21108882811416L678.3137713675212,288.2746635610799L681.052685185185,288.406644434814L683.7915990028488,299.1640860822545L686.5305128205126,298.4438411868121L689.2694266381765,298.2111944347979L692.0083404558403,301.03913155754645L694.7472542735042,284.6092058267579L697.486168091168,300.1159259870828L700.2250819088318,292.1930910497904L702.9639957264957,295.4025606371193L705.7029095441594,302.6890528058431L708.4418233618233,290.3770714229848L711.1807371794871,295.62874943287255L713.9196509971509,294.8452588923006L716.6585648148148,276.6821767450815L719.3974786324786,294.59210315903266L18.235541310541304,22.96860944793883L20.974455128205122,62.06596165464583L23.71336894586894,156.76276443018972L26.452282763532757,132.93543257483518L29.191196581196575,93.83854210879429L31.930110398860393,136.32060731175432L34.66902421652421,124.26535373926163L37.40793803418803,98.48939931608112L40.14685185185184,123.06944541399739L42.885765669515656,158.38689874489626L45.62467948717948,163.87273699009273L48.3635933048433,192.18287810252374L51.102507122507106,206.37012941794222L53.84142094017093,167.05573344589715L56.58033475783474,205.37693807123657L59.31924857549856,220.0220180832478L62.05816239316238,238.9716369768223L64.79707621082619,237.64331168941703L67.53599002849002,218.17831325566914L70.27490384615383,240.79551260801682L73.01381766381765,183.98478801063746L75.75273148148148,224.54011202289396L78.49164529914529,231.81383577958647L81.2305591168091,185.35642713775118L83.96947293447292,241.87935903883843L86.70838675213675,215.70689764475247L89.44730056980056,215.90520243472363L92.18621438746437,225.9922864178577L94.92512820512819,242.20202598155262L97.66404202279202,228.12987635329546L100.40295584045583,251.62993668540412L103.14186965811966,259.3569230365466L105.88078347578346,246.9681387895561L108.61969729344727,237.04035533623522L111.3586111111111,238.31089890972677L114.09752492877492,241.11504997510508L116.83643874643874,251.95650277152117L119.57535256410254,255.60225315769034L122.31426638176637,262.08577189495765L125.05318019943019,258.11516129791016L127.79209401709402,259.4605325115732L130.53100783475782,266.46885158121586L133.26992165242166,257.34804331179123L136.00883547008544,276.919440903757L138.7477492877493,266.19267935835455L141.4866631054131,269.6446782305657L144.22557692307691,253.5913725567151L146.96449074074073,268.0720023478729L149.70340455840454,253.9350358736084L152.44231837606836,250.73920046205978L155.18123219373217,265.1011693150882L157.92014601139599,276.94024488599183L160.6590598290598,271.0320357795221L163.39797364672364,256.73247887319826L166.13688746438743,270.9729265611933L168.87580128205127,266.56144341090356L171.61471509971508,239.27789929975947L174.3536289173789,278.18019814035256L177.0925427350427,263.86396085246497L179.83145655270653,264.0139624383076L182.57037037037034,273.27553748025235L185.30928418803416,269.2782421205417L188.04819800569797,287.383112878505L190.7871118233618,277.09683268939153L193.5260256410256,259.66097926519L196.26493945868944,273.2061801843614L199.00385327635325,274.7107236665415L201.7427670940171,280.52686681463774L204.48168091168088,274.17378340248604L207.2205947293447,283.29664385264897L209.95950854700854,263.19140991999444L212.69842236467235,274.56735318970965L215.43733618233614,285.3949345269476L218.17624999999998,275.90888939061796L220.9151638176638,271.567699843681L223.65407763532758,273.2627818943506L226.39299145299142,276.6446346636996L229.13190527065524,275.5961370460958L231.87081908831908,291.01444028192253L234.60973290598287,263.8940253002816L237.34864672364668,280.4683668374656L240.08756054131052,275.6547396323049L242.82647435897434,287.25894953077096L245.56538817663812,285.20084953361965L248.30430199430197,270.8832526759929L251.04321581196578,269.4698131924652L253.78212962962962,276.0149550694658L256.5210434472934,275.30618314696363L259.2599572649572,284.96407276786954L261.99887108262106,285.2902412439685L264.73778490028485,284.32481846787846L267.4766987179487,277.50166381841683L270.2156125356125,280.0187147985022L272.9545263532763,279.226047162191L275.6934401709401,269.74327268891307L278.43235398860395,267.47322089988063L281.1712678062678,257.63873471337627L283.9101816239316,291.33936462344894L286.64909544159536,276.8762168469558L289.3880092592592,278.3959272274052L292.12692307692305,246.26420231791863L294.8658368945869,255.13839618017874L297.6047507122507,280.44949960080254L300.34366452991446,267.11329405063606L303.0825783475783,286.5744446454996L305.8214921652421,289.3490186559867L308.56040598290593,281.40083928657583L311.2993198005698,286.9304402860173L314.03823361823356,289.22003268351756L316.77714743589735,273.9629154185574L319.5160612535612,282.4697368633316L322.25497507122503,295.23960466036596L324.9938888888889,270.5304379156196L327.73280270655266,286.797567996275L330.47171652421645,284.3698445958904L333.2106303418803,285.94542559694094L335.94954415954413,292.4213448524116L338.6884579772079,281.6875161095915L341.42737179487176,284.23790220054514L344.1662856125356,284.4624300125133L346.9051994301994,271.93945238443024L349.6441132478632,286.9653081193746L352.38302706552696,283.8117091526468L355.1219408831908,264.3986821960972L357.8608547008546,283.2805470599826L360.59976851851843,284.8726032245231L363.3386823361823,277.8390808101878L366.07759615384606,280.27097911576186L368.81650997150984,279.6764751819961L371.5554237891737,283.4557391643883L374.29433760683753,270.92698336491384L377.0332514245014,278.3607195016131L379.77216524216516,277.0560904886708L382.51107905982894,275.78911899227694L385.2499928774928,281.4396768070488L387.98890669515663,291.01398495432124L390.7278205128205,273.8030441259763L393.4667343304842,284.9695880036038L396.20564814814804,284.7076014800962L398.94456196581183,293.3542469768639L401.68347578347567,273.9465685163636L404.4223896011395,279.7650909115033L407.16130341880336,278.3756106380957L409.90021723646714,269.3839037763067L412.639131054131,280.05476904884875L415.3780448717947,279.07374328608256L418.11695868945856,275.44511578294885L420.8558725071224,279.15516996994074L423.59478632478624,295.63030780762074L426.33370014245,265.88939911055274L429.07261396011387,292.25200146311016L431.8115277777777,293.84846340317324L434.55044159544144,279.88437391691895L437.2893554131053,296.4339289586228L440.0282692307691,295.20663509419165L442.7671830484329,271.49526427668263L445.50609686609675,297.39423410899667L448.2450106837606,282.02329776983663L450.98392450142444,280.62197897879474L453.7228383190882,288.05899219161057L456.461752136752,289.002604134291L459.2006659544158,290.2063684639442L461.93957977207964,286.098672193576L464.6784935897435,288.275292041431L467.4174074074073,293.8336428104036L470.1563212250711,295.55828908983483L472.89523504273495,283.54894664829754L475.6341488603987,280.5068003348557L478.3730626780625,293.05541739603837L481.11197649572637,271.74940762193086L483.8508903133902,291.0818544191768L486.58980413105405,285.94025666670626L489.32871794871784,284.2518698556955L492.0676317663817,287.9928093627993L494.8065455840455,277.44637037364834L497.54545940170925,280.7155584204628L500.2843732193731,289.7499378154795L503.02328703703694,292.5891811714833L505.7622008547007,278.4228749257254L508.50111467236457,267.03170062709285L511.2400284900284,283.0507605348725L513.9789423076923,288.16716135571517L516.717856125356,264.66624808598715L519.4567699430198,288.82219179513226L522.1956837606837,278.5259649425027L524.9345975783475,286.7608339610588L527.6735113960112,286.3858364095171L530.4124252136751,285.53225748366617L533.1513390313389,290.6793319934822L535.8902528490028,287.38956442170115L538.6291666666665,265.9023983929172L541.3680804843303,289.8766279107476L544.1069943019942,291.7504484906613L546.845908119658,275.52011016280534L549.5848219373219,283.72406179592554L552.3237357549857,287.7672233951379L555.0626495726494,286.15243291585557L557.8015633903133,285.03682257504346L560.540477207977,274.19032910968883L563.2793910256408,291.74383662084495L566.0183048433047,278.2353504976953L568.7572186609685,280.0393712802464L571.4961324786324,278.7905295180628L574.2350462962962,273.8798790554325L576.9739601139601,265.0704892130501L579.7128739316238,283.998098468206L582.4517877492876,280.6323104261993L585.1907015669515,259.3661450237395L587.9296153846152,267.3842973432627L590.668529202279,272.79042119290455L593.4074430199429,281.9164689362767L596.1463568376067,291.759708956243L598.8852706552705,263.1270484015884L601.6241844729343,277.42842020525273L604.3630982905981,285.97117405214226L607.102012108262,283.56630681473086L609.8409259259258,286.91164359306714L612.5798397435897,283.39175601680597L615.3187535612534,278.637904988714L618.0576673789172,285.0312560347908L620.796581196581,283.8825735187674L623.5354950142448,280.3948474625148L626.2744088319087,272.180134706648L629.0133226495725,288.3830443563231" style="fill: none;" fill="none"></path></g></g></g></g></g></g><g transform="translate(40, 378)" clip-path="url(#clip_1)"><clipPath id="clip_1"><rect width="754" height="22"></rect></clipPath><g><g><line x1="18.235541310541304" y1="0" x2="18.235541310541304" y2="5" style="visibility: inherit;" fill="rgb(0, 0, 0)" stroke="rgb(204, 204, 204)" stroke-width="1px"></line><line x1="73.01381766381765" y1="0" x2="73.01381766381765" y2="5" style="visibility: inherit;" fill="rgb(0, 0, 0)" stroke="rgb(204, 204, 204)" stroke-width="1px"></line><line x1="127.79209401709402" y1="0" x2="127.79209401709402" y2="5" style="visibility: inherit;" fill="rgb(0, 0, 0)" stroke="rgb(204, 204, 204)" stroke-width="1px"></line><line x1="182.57037037037034" y1="0" x2="182.57037037037034" y2="5" style="visibility: inherit;" fill="rgb(0, 0, 0)" stroke="rgb(204, 204, 204)" stroke-width="1px"></line><line x1="237.34864672364668" y1="0" x2="237.34864672364668" y2="5" style="visibility: inherit;" fill="rgb(0, 0, 0)" stroke="rgb(204, 204, 204)" stroke-width="1px"></line><line x1="292.12692307692305" y1="0" x2="292.12692307692305" y2="5" style="visibility: inherit;" fill="rgb(0, 0, 0)" stroke="rgb(204, 204, 204)" stroke-width="1px"></line><line x1="346.9051994301994" y1="0" x2="346.9051994301994" y2="5" style="visibility: inherit;" fill="rgb(0, 0, 0)" stroke="rgb(204, 204, 204)" stroke-width="1px"></line><line x1="401.68347578347567" y1="0" x2="401.68347578347567" y2="5" style="visibility: inherit;" fill="rgb(0, 0, 0)" stroke="rgb(204, 204, 204)" stroke-width="1px"></line><line x1="456.461752136752" y1="0" x2="456.461752136752" y2="5" style="visibility: inherit;" fill="rgb(0, 0, 0)" stroke="rgb(204, 204, 204)" stroke-width="1px"></line><line x1="511.2400284900284" y1="0" x2="511.2400284900284" y2="5" style="visibility: inherit;" fill="rgb(0, 0, 0)" stroke="rgb(204, 204, 204)" stroke-width="1px"></line><line x1="566.0183048433047" y1="0" x2="566.0183048433047" y2="5" style="visibility: inherit;" fill="rgb(0, 0, 0)" stroke="rgb(204, 204, 204)" stroke-width="1px"></line><line x1="620.796581196581" y1="0" x2="620.796581196581" y2="5" style="visibility: inherit;" fill="rgb(0, 0, 0)" stroke="rgb(204, 204, 204)" stroke-width="1px"></line><line x1="675.5748575498575" y1="0" x2="675.5748575498575" y2="5" style="visibility: inherit;" fill="rgb(0, 0, 0)" stroke="rgb(204, 204, 204)" stroke-width="1px"></line><line x1="730.3531339031339" y1="0" x2="730.3531339031339" y2="5" style="visibility: inherit;" fill="rgb(0, 0, 0)" stroke="rgb(204, 204, 204)" stroke-width="1px"></line></g><g transform="translate(0, 8)"><text x="18.235541310541304" y="0" dx="0em" dy="0.95em" style="text-anchor: middle; visibility: inherit; font-family: &quot;Helvetica Neue&quot;, sans-serif; font-size: 12px; font-weight: 200;" fill="rgb(50, 49, 63)" stroke="none" stroke-width="1px">0</text><text x="73.01381766381765" y="0" dx="0em" dy="0.95em" style="text-anchor: middle; visibility: inherit; font-family: &quot;Helvetica Neue&quot;, sans-serif; font-size: 12px; font-weight: 200;" fill="rgb(50, 49, 63)" stroke="none" stroke-width="1px">20</text><text x="127.79209401709402" y="0" dx="0em" dy="0.95em" style="text-anchor: middle; visibility: inherit; font-family: &quot;Helvetica Neue&quot;, sans-serif; font-size: 12px; font-weight: 200;" fill="rgb(50, 49, 63)" stroke="none" stroke-width="1px">40</text><text x="182.57037037037034" y="0" dx="0em" dy="0.95em" style="text-anchor: middle; visibility: inherit; font-family: &quot;Helvetica Neue&quot;, sans-serif; font-size: 12px; font-weight: 200;" fill="rgb(50, 49, 63)" stroke="none" stroke-width="1px">60</text><text x="237.34864672364668" y="0" dx="0em" dy="0.95em" style="text-anchor: middle; visibility: inherit; font-family: &quot;Helvetica Neue&quot;, sans-serif; font-size: 12px; font-weight: 200;" fill="rgb(50, 49, 63)" stroke="none" stroke-width="1px">80</text><text x="292.12692307692305" y="0" dx="0em" dy="0.95em" style="text-anchor: middle; visibility: inherit; font-family: &quot;Helvetica Neue&quot;, sans-serif; font-size: 12px; font-weight: 200;" fill="rgb(50, 49, 63)" stroke="none" stroke-width="1px">100</text><text x="346.9051994301994" y="0" dx="0em" dy="0.95em" style="text-anchor: middle; visibility: inherit; font-family: &quot;Helvetica Neue&quot;, sans-serif; font-size: 12px; font-weight: 200;" fill="rgb(50, 49, 63)" stroke="none" stroke-width="1px">120</text><text x="401.68347578347567" y="0" dx="0em" dy="0.95em" style="text-anchor: middle; visibility: inherit; font-family: &quot;Helvetica Neue&quot;, sans-serif; font-size: 12px; font-weight: 200;" fill="rgb(50, 49, 63)" stroke="none" stroke-width="1px">140</text><text x="456.461752136752" y="0" dx="0em" dy="0.95em" style="text-anchor: middle; visibility: inherit; font-family: &quot;Helvetica Neue&quot;, sans-serif; font-size: 12px; font-weight: 200;" fill="rgb(50, 49, 63)" stroke="none" stroke-width="1px">160</text><text x="511.2400284900284" y="0" dx="0em" dy="0.95em" style="text-anchor: middle; visibility: inherit; font-family: &quot;Helvetica Neue&quot;, sans-serif; font-size: 12px; font-weight: 200;" fill="rgb(50, 49, 63)" stroke="none" stroke-width="1px">180</text><text x="566.0183048433047" y="0" dx="0em" dy="0.95em" style="text-anchor: middle; visibility: inherit; font-family: &quot;Helvetica Neue&quot;, sans-serif; font-size: 12px; font-weight: 200;" fill="rgb(50, 49, 63)" stroke="none" stroke-width="1px">200</text><text x="620.796581196581" y="0" dx="0em" dy="0.95em" style="text-anchor: middle; visibility: inherit; font-family: &quot;Helvetica Neue&quot;, sans-serif; font-size: 12px; font-weight: 200;" fill="rgb(50, 49, 63)" stroke="none" stroke-width="1px">220</text><text x="675.5748575498575" y="0" dx="0em" dy="0.95em" style="text-anchor: middle; visibility: inherit; font-family: &quot;Helvetica Neue&quot;, sans-serif; font-size: 12px; font-weight: 200;" fill="rgb(50, 49, 63)" stroke="none" stroke-width="1px">240</text><text x="730.3531339031339" y="0" dx="0em" dy="0.95em" style="text-anchor: middle; visibility: inherit; font-family: &quot;Helvetica Neue&quot;, sans-serif; font-size: 12px; font-weight: 200;" fill="rgb(50, 49, 63)" stroke="none" stroke-width="1px">260</text></g><line x1="0" y1="0" x2="754.5" y2="0" fill="rgb(0, 0, 0)" stroke="rgb(204, 204, 204)" stroke-width="1px"></line></g></g></g></g></svg>